<?xml version="1.0" standalone="no"?><!DOCTYPE svg PUBLIC "-//W3C//DTD SVG 1.1//EN" "http://www.w3.org/Graphics/SVG/1.1/DTD/svg11.dtd"><svg t="1595153167380" class="icon" viewBox="0 0 1024 1024" version="1.1" xmlns="http://www.w3.org/2000/svg" p-id="2313" xmlns:xlink="http://www.w3.org/1999/xlink" width="200" height="200"><defs><style type="text/css"></style></defs><path d="M511.3 511.8m-448 0a448 448 0 1 0 896 0 448 448 0 1 0-896 0Z" fill="#324A5E" p-id="2314"></path><path d="M732.1 901.7c117.2-66.5 201.5-184.3 222.2-322.9L661.2 285.6l-206.5 70-145 69.9 51.1 51.1-24.5 15.4 78.8 78.8-6.9 7 323.9 323.9z" fill="#2B3B4E" p-id="2315"></path><path d="M346.6 445.5c-22.2 0-41.5-16.7-43.3-38.8-0.7-9 1.4-17.4 5.6-24.5-3.6-6.2-5.7-13.4-5.7-21.1 0-23.3 18.9-42.2 42.2-42.2 0-23.1 18.5-41.8 41.4-42.2 23.7-0.4 43 19.7 43 43.3v45.8c0 44.1-35.7 79.8-79.8 79.8l-3.4-0.1z" fill="#B8C9D9" p-id="2316"></path><path d="M676.1 445.5c22.2 0 41.5-16.7 43.3-38.8 0.7-9-1.4-17.4-5.6-24.5 3.6-6.2 5.7-13.4 5.7-21.1 0-23.3-18.9-42.2-42.2-42.2 0-23.1-18.5-41.8-41.4-42.2-23.7-0.4-43 19.7-43 43.3v45.8c0 44.1 35.7 79.8 79.8 79.8l3.4-0.1z" fill="#9BADBC" p-id="2317"></path><path d="M555.2 623v-48.7h-87.8V623c0 3.9-3.1 7-7 7h-60.5v168h222.9V630h-60.5c-3.9 0.1-7.1-3.1-7.1-7z" fill="#FED8B2" p-id="2318"></path><path d="M622.8 630.1h-60.5c-3.9 0-7-3.1-7-7v-48.7h-44.9v223.7h112.5v-168h-0.1z" fill="#EABE96" p-id="2319"></path><path d="M365.4 472.3m-35.1 0a35.1 35.1 0 1 0 70.2 0 35.1 35.1 0 1 0-70.2 0Z" fill="#FED8B2" p-id="2320"></path><path d="M649.8 472.3m-35.1 0a35.1 35.1 0 1 0 70.2 0 35.1 35.1 0 1 0-70.2 0Z" fill="#EABE96" p-id="2321"></path><path d="M511.6 618.4h-7.9c-73.1 0-132.4-59.3-132.4-132.4V365.1c0-73.1 59.3-132.4 132.4-132.4h7.9c73.1 0 132.4 59.3 132.4 132.4V486c0 73.2-59.3 132.4-132.4 132.4z" fill="#F4E3C3" p-id="2322"></path><path d="M511.6 232.7h-1.2v385.8h1.2c73.1 0 132.4-59.3 132.4-132.4v-121c0-73.1-59.3-132.4-132.4-132.4z" fill="#FED8B2" p-id="2323"></path><path d="M507.6 568.5c-24.6 0-44.6-20-44.6-44.6 0-4.2 3.4-7.5 7.5-7.5s7.5 3.4 7.5 7.5c0 16.3 13.2 29.5 29.5 29.5s29.5-13.2 29.5-29.5c0-4.2 3.4-7.5 7.5-7.5 4.2 0 7.5 3.4 7.5 7.5 0.2 24.6-19.8 44.6-44.4 44.6z" fill="#FD8469" p-id="2324"></path><path d="M443.3 456.7m-13.6 0a13.6 13.6 0 1 0 27.2 0 13.6 13.6 0 1 0-27.2 0Z" fill="#59595B" p-id="2325"></path><path d="M571.9 456.7m-13.6 0a13.6 13.6 0 1 0 27.2 0 13.6 13.6 0 1 0-27.2 0Z" fill="#272525" p-id="2326"></path><path d="M507.6 683.8c-41 0-74.3-12.7-74.3-53.7h-46.7c-56.3 0-101.9 45.6-101.9 101.9v166.4c66.2 38.9 143.3 61.3 225.6 61.5v-276c-0.9-0.1-1.8-0.1-2.7-0.1z" fill="#E6F3FF" p-id="2327"></path><path d="M628.6 630.1h-46.7c0 40.1-31.8 53.1-71.6 53.7v276h1c79.6 0 154.4-20.8 219.2-57.2V731.9c0-56.2-45.6-101.8-101.9-101.8z" fill="#CFDBE6" p-id="2328"></path><path d="M500.8 680.5v279.1c3.5 0.1 7 0.2 10.6 0.2s7-0.1 10.6-0.2V680.5c-3.5 0.2-7 0.2-10.6 0.2s-7.2 0-10.6-0.2z" fill="#A1B5C4" p-id="2329"></path><path d="M511.3 680.8h-1v279.1h1c3.5 0 7-0.1 10.6-0.2V680.5c-3.4 0.2-7 0.3-10.6 0.3z" fill="#8EA3AF" p-id="2330"></path><path d="M461.6 630.1l49.7 50.7-49.7 49.7-49.8-100.4z" fill="#CFDBE6" p-id="2331"></path><path d="M561.1 630.1l-49.8 50.7 49.8 49.7 49.8-100.4z" fill="#A9BBC9" p-id="2332"></path><path d="M574.7 367.7c-1.7 0-3.3-0.5-4.7-1.7-16.8-13.6-37-20.7-58.6-20.7s-41.8 7.2-58.6 20.7c-3.2 2.6-8 2.1-10.6-1.1s-2.1-8 1.1-10.6c19.2-15.5 43.4-24.1 68.1-24.1 24.7 0 48.9 8.6 68.1 24.1 3.2 2.6 3.7 7.4 1.1 10.6-1.5 1.8-3.7 2.8-5.9 2.8z" fill="#FED8B2" p-id="2333"></path><path d="M588.3 336.9c-1.7 0-3.3-0.5-4.7-1.7-20.6-16.7-45.6-25.5-72.2-25.5s-51.5 8.8-72.2 25.5c-3.2 2.6-8 2.1-10.6-1.1s-2.1-8 1.1-10.6c23-18.6 52-28.9 81.7-28.9 29.6 0 58.6 10.3 81.7 28.9 3.2 2.6 3.7 7.4 1.1 10.6-1.6 1.8-3.7 2.8-5.9 2.8z" fill="#FED8B2" p-id="2334"></path><path d="M552.2 523.9c0-4.2-3.4-7.5-7.5-7.5-4.2 0-7.5 3.4-7.5 7.5 0 15.3-11.8 28-26.7 29.3v15.1c23.1-1.4 41.7-20.7 41.7-44.4z" fill="#FC6F58" p-id="2335"></path><path d="M579.4 354.3c-19.2-15.5-43.4-24.1-68.1-24.1h-1v15.1h1c21.6 0 41.8 7.2 58.6 20.7 1.4 1.1 3.1 1.7 4.7 1.7 2.2 0 4.4-1 5.9-2.8 2.7-3.3 2.2-8-1.1-10.6zM593 323.5c-23-18.6-52-28.9-81.7-28.9h-1v15.1h1c26.6 0 51.5 8.8 72.2 25.5 1.4 1.1 3.1 1.7 4.7 1.7 2.2 0 4.4-1 5.9-2.8 2.7-3.3 2.2-8-1.1-10.6z" fill="#EABE96" p-id="2336"></path><path d="M552.1 773.5h135.8v24.1H552.1z" fill="#A1B5C4" p-id="2337"></path><path d="M821.7 509.8v-34h8.2v-22.6H772v22.6h8.2v34c-35.8 9.2-62.2 41.7-62.2 80.3 0 45.8 37.1 83 83 83 45.8 0 83-37.1 83-83-0.1-38.6-26.5-71.1-62.3-80.3z" fill="#B5F1F4" p-id="2338"></path><path d="M821.7 509.8v-34h8.2v-22.6H800v219.9h1c45.8 0 83-37.1 83-83-0.1-38.6-26.5-71.1-62.3-80.3z" fill="#84DBFF" p-id="2339"></path><path d="M843.7 567.5c-32.7-5-65.4-15.1-100.6-7.5-7.1 1.3-14.1 2.8-21 4.3-2.7 8.2-4.1 16.9-4.1 25.9 0 45.8 37.1 83 83 83 45.8 0 83-37.1 83-83 0-8.8-1.4-17.2-3.9-25.2-11.5 4.7-25.4 4.1-36.4 2.5z" fill="#FC6F58" p-id="2340"></path><path d="M880 565c-11.4 4.7-25.3 4.1-36.3 2.5-14.5-2.2-29-5.4-43.7-7.7V673h1c45.8 0 83-37.1 83-83-0.1-8.6-1.5-17.1-4-25z" fill="#F1543F" p-id="2341"></path></svg>