<?xml version="1.0" standalone="no"?><!DOCTYPE svg PUBLIC "-//W3C//DTD SVG 1.1//EN" "http://www.w3.org/Graphics/SVG/1.1/DTD/svg11.dtd"><svg t="1594692971795" class="icon" viewBox="0 0 1024 1024" version="1.1" xmlns="http://www.w3.org/2000/svg" p-id="2512" xmlns:xlink="http://www.w3.org/1999/xlink" width="200" height="200"><defs><style type="text/css"></style></defs><path d="M770.71 562.61c-9.06-9.16-21.45-14.3-34.33-14.3-12.93 0-25.27 5.14-34.38 14.3a48.428 48.428 0 0 0-14.3 34.38l0.1-0.1c0 12.98 5.24 25.42 14.45 34.53a48.428 48.428 0 0 0 34.38 14.3c12.39-0.1 24.34-4.95 33.25-13.57l0.83-0.73 0.25-0.2c18.85-19 18.75-49.71-0.25-68.61z m-17.68 50.93l-0.54 0.59c-4.31 4.07-9.99 6.32-15.97 6.32-6.22 0.05-12.19-2.4-16.65-6.86l-0.29-0.29c-9.01-9.21-8.86-23.95 0.29-32.96h-0.15c4.41-4.46 10.38-6.95 16.65-6.91 6.22-0.05 12.24 2.4 16.65 6.81 0.15 0.15 0.29 0.29 0.44 0.49 8.92 9.16 8.73 23.85-0.43 32.81z" p-id="2513"></path><path d="M753.03 613.54l-0.54 0.59c-4.31 4.07-9.99 6.32-15.97 6.32-6.22 0.05-12.19-2.4-16.65-6.86l-0.29-0.29c-9.01-9.21-8.86-23.95 0.29-32.96h-0.15c4.41-4.46 10.38-6.95 16.65-6.91 6.22-0.05 12.24 2.4 16.65 6.81 0.15 0.15 0.29 0.29 0.44 0.49 8.92 9.16 8.73 23.85-0.43 32.81z" fill="#A0EA9D" p-id="2514"></path><path d="M888.05 263.51a58.193 58.193 0 0 0-41.63-17.14H626.47a58.119 58.119 0 0 0-40.55 16.65l-0.73 0.73a58.162 58.162 0 0 0-17.14 41.58c0.1 15.23 6.12 29.78 16.8 40.6a58.193 58.193 0 0 0 41.63 17.14h219.95c15.62 0.1 30.61-6.07 41.63-17.14l0.1-0.05c22.72-22.76 22.67-59.64-0.11-82.37z m-41.63 74.89H626.47c-8.47-0.15-16.55-3.48-22.63-9.35-13.17-12.78-13.57-33.84-0.78-47.07l0.59-0.49c6.17-5.88 14.3-9.16 22.82-9.16h219.95c8.77 0 17.19 3.48 23.41 9.65a33.243 33.243 0 0 1 9.35 22.58c0.3 18.36-14.34 33.49-32.76 33.84z" p-id="2515"></path><path d="M879.19 304.55c0.29 18.37-14.35 33.5-32.76 33.84H626.47c-8.47-0.15-16.55-3.48-22.63-9.35-13.17-12.78-13.57-33.84-0.78-47.07l0.59-0.49c6.17-5.88 14.3-9.16 22.82-9.16h219.95c8.77 0 17.19 3.48 23.41 9.65a33.338 33.338 0 0 1 9.36 22.58z" fill="#FD5E7A" p-id="2516"></path><path d="M770.81 797.4a48.82 48.82 0 0 0-34.33-14.3c-12.93 0-25.32 5.09-34.48 14.25-9.11 9.06-14.25 21.45-14.3 34.33l0.1-0.25c0 13.08 5.24 25.57 14.55 34.72a48.848 48.848 0 0 0 34.38 14.3 48.53 48.53 0 0 0 33.25-13.57l0.83-0.73 0.15-0.15c18.9-18.94 18.85-49.7-0.15-68.6z m-17.88 50.83l-0.49 0.59c-4.31 4.06-10.04 6.37-15.97 6.32-6.27 0.05-12.24-2.4-16.65-6.81-0.1-0.1-0.25-0.2-0.34-0.34-9.01-9.16-8.86-23.95 0.34-32.96l-0.2-0.05c4.41-4.41 10.43-6.91 16.65-6.86 6.27-0.05 12.24 2.45 16.65 6.86l0.34 0.34c9.02 9.16 8.88 23.9-0.33 32.91z" p-id="2517"></path><path d="M752.93 848.23l-0.49 0.59c-4.31 4.06-10.04 6.37-15.97 6.32-6.27 0.05-12.24-2.4-16.65-6.81-0.1-0.1-0.25-0.2-0.34-0.34-9.01-9.16-8.86-23.95 0.34-32.96l-0.2-0.05c4.41-4.41 10.43-6.91 16.65-6.86 6.27-0.05 12.24 2.45 16.65 6.86l0.34 0.34c9.02 9.16 8.88 23.9-0.33 32.91z" fill="#A0EA9D" p-id="2518"></path><path d="M846.28 655.95h-220c-32.13 0-58.23 26.05-58.23 58.23-0.2 15.57 5.88 30.56 16.8 41.63a58.193 58.193 0 0 0 41.63 17.14h219.8c15.62 0.1 30.61-6.07 41.63-17.14a58.316 58.316 0 0 0 17.44-42.46c-0.45-32.17-26.9-57.84-59.07-57.4z m0.14 91.29H626.47c-8.47-0.15-16.55-3.48-22.63-9.35-13.17-12.78-13.57-33.84-0.78-47.07a33.284 33.284 0 0 1 23.41-10.14h219.95c18.41 0 33.3 14.89 33.3 33.25 0.01 18.43-14.88 33.31-33.3 33.31z" p-id="2519"></path><path d="M879.73 713.94c0 18.41-14.89 33.3-33.3 33.3H626.47c-8.47-0.15-16.55-3.48-22.63-9.35-13.17-12.78-13.57-33.84-0.78-47.07a33.284 33.284 0 0 1 23.41-10.14h219.95c18.42 0.01 33.31 14.9 33.31 33.26z" fill="#A0EA9D" p-id="2520"></path><path d="M358.48 714.14l36.44-36.44c0.05-0.1 0.15-0.2 0.25-0.29 22.68-22.77 22.58-59.65-0.25-82.33-0.1-0.1-0.2-0.2-0.25-0.29-22.82-22.63-59.7-22.53-82.38 0.29l-36.44 36.44-36.44-36.44-0.29-0.29c-22.77-22.63-59.65-22.53-82.33 0.29-0.1 0.1-0.2 0.15-0.29 0.24-22.68 22.82-22.53 59.7 0.29 82.38l36.44 36.44-36.54 36.54c-22.72 22.77-22.68 59.6 0.1 82.33 0.1 0.15 0.24 0.29 0.39 0.44 22.87 22.63 59.75 22.43 82.38-0.44l36.29-36.24 36.44 36.44 0.24 0.24c22.82 22.68 59.7 22.58 82.38-0.24 0.1-0.1 0.15-0.2 0.25-0.24 22.68-22.82 22.58-59.7-0.25-82.38l-36.43-36.45z m18.61 101.08c-12.93 12.78-33.79 12.78-46.77 0l-45.4-45.45c-2.45-2.5-5.73-3.72-8.96-3.72-3.23 0-6.46 1.22-8.91 3.72l-45.45 45.45c-12.93 12.68-33.65 12.68-46.58 0-12.78-12.98-12.78-33.74 0-46.67l45.4-45.45c2.5-2.45 3.72-5.68 3.72-8.91 0-3.23-1.22-6.46-3.72-8.96l-45.4-45.45c-5.88-6.07-9.26-14.1-9.35-22.58-0.29-18.37 14.35-33.5 32.72-33.79 8.72 0 17.09 3.43 23.31 9.55l45.4 45.35c2.45 2.5 5.73 3.72 8.96 3.72 3.23 0 6.47-1.22 8.91-3.72l45.2-45.25c12.98-12.83 33.79-12.83 46.77 0 12.78 12.93 12.78 33.79 0 46.72l-45.45 45.45c-2.5 2.5-3.72 5.73-3.72 8.96 0 3.23 1.22 6.46 3.72 8.91l45.6 45.35c12.78 12.98 12.78 33.79 0 46.77z" p-id="2521"></path><path d="M377.09 815.22c-12.93 12.78-33.79 12.78-46.77 0l-45.4-45.45c-2.45-2.5-5.73-3.72-8.96-3.72-3.23 0-6.46 1.22-8.91 3.72l-45.45 45.45c-12.93 12.68-33.65 12.68-46.58 0-12.78-12.98-12.78-33.74 0-46.67l45.4-45.45c2.5-2.45 3.72-5.68 3.72-8.91 0-3.23-1.22-6.46-3.72-8.96l-45.4-45.45c-5.88-6.07-9.26-14.1-9.35-22.58-0.29-18.37 14.35-33.5 32.72-33.79 8.72 0 17.09 3.43 23.31 9.55l45.4 45.35c2.45 2.5 5.73 3.72 8.96 3.72 3.23 0 6.47-1.22 8.91-3.72l45.2-45.25c12.98-12.83 33.79-12.83 46.77 0 12.78 12.93 12.78 33.79 0 46.72l-45.45 45.45c-2.5 2.5-3.72 5.73-3.72 8.96 0 3.23 1.22 6.46 3.72 8.91l45.6 45.35c12.78 12.98 12.78 33.79 0 46.77z" fill="#FFEA8F" p-id="2522"></path><path d="M428.61 263.76a58.193 58.193 0 0 0-41.63-17.14h-51.57v-51.57c0.1-15.62-6.07-30.61-17.14-41.63a58.162 58.162 0 0 0-41.58-17.14 58.193 58.193 0 0 0-41.63 17.14c-11.02 11.02-17.24 26.01-17.14 41.63v51.57h-51.57c-15.62-0.1-30.61 6.07-41.58 17.14a58.162 58.162 0 0 0-17.14 41.58c0 15.53 6.12 30.36 17.14 41.29 10.97 11.07 25.96 17.24 41.58 17.14h51.57v51.91c-0.1 15.62 6.12 30.56 17.14 41.58a58.193 58.193 0 0 0 41.63 17.14c15.57 0.1 30.56-6.07 41.58-17.14 11.07-11.02 17.24-25.96 17.14-41.58v-51.57h51.57c15.62 0.05 30.61-6.12 41.63-17.14 11.02-11.02 17.24-26.01 17.14-41.63 0.1-15.58-6.12-30.56-17.14-41.58z m-42.02 74.69h-64.26c-6.95 0-12.64 5.68-12.64 12.68v64.21c0 18.37-14.89 33.3-33.25 33.3-18.41 0-33.3-14.94-33.3-33.3v-64.06c0-7-5.68-12.64-12.64-12.64h-64.26c-18.37 0-33.25-14.89-33.25-33.3 0-8.77 3.48-17.19 9.65-23.46 6.22-6.17 14.59-9.65 23.36-9.65h63.91c7 0 12.64-5.63 12.64-12.64v-64.26c0-18.37 14.89-33.25 33.3-33.25 18.37 0 33.25 14.89 33.25 33.25v64.16c0 7 5.68 12.64 12.64 12.64h65.09c8.77 0.05 17.14 3.48 23.36 9.65 6.17 6.27 9.65 14.64 9.7 23.41 0.01 18.37-14.93 33.26-33.3 33.26z" p-id="2523"></path><path d="M419.9 305.19c0 18.37-14.94 33.25-33.3 33.25h-64.26c-6.95 0-12.64 5.68-12.64 12.68v64.21c0 18.37-14.89 33.3-33.25 33.3-18.41 0-33.3-14.94-33.3-33.3v-64.06c0-7-5.68-12.64-12.64-12.64h-64.26c-18.37 0-33.25-14.89-33.25-33.3 0-8.77 3.48-17.19 9.65-23.46 6.22-6.17 14.59-9.65 23.36-9.65h63.91c7 0 12.64-5.63 12.64-12.64v-64.26c0-18.37 14.89-33.25 33.3-33.25 18.37 0 33.25 14.89 33.25 33.25v64.16c0 7 5.68 12.64 12.64 12.64h65.09c8.77 0.05 17.14 3.48 23.36 9.65 6.17 6.28 9.65 14.65 9.7 23.42z" fill="#80D8FF" p-id="2524"></path></svg>